/* XPM */
static char *b705ec06783d4f2791b13bc6828fb5c79NPYpNHvUaYaBw5R[] = {
/* columns rows colors chars-per-pixel */
"100 100 90 1 ",
"  c #070708",
". c #080709",
"X c #070909",
"o c #0B0C0D",
"O c #0E100F",
"+ c #0D0F11",
"@ c #0E1113",
"# c #111415",
"$ c #121817",
"% c #131619",
"& c #151A1C",
"* c #181C1F",
"= c #171D20",
"- c #191E21",
"; c #1C2225",
": c #1E2529",
"> c #1F282B",
", c #202527",
"< c #21262A",
"1 c #222A2D",
"2 c #282C2F",
"3 c #262D31",
"4 c #292E33",
"5 c #273033",
"6 c #263035",
"7 c #283033",
"8 c #293235",
"9 c #2B3235",
"0 c #293036",
"q c #293137",
"w c #293336",
"e c #2B3337",
"r c #2C3336",
"t c #2C3237",
"y c #2B3437",
"u c #2C3437",
"i c #2B3138",
"p c #293338",
"a c #2D3338",
"s c #2D3339",
"d c #2C323B",
"f c #2D333B",
"g c #283538",
"h c #2B3439",
"j c #2A373A",
"k c #2D3538",
"l c #2D3639",
"z c #2B353D",
"x c #2B373D",
"c c #2D373C",
"v c #2E393D",
"b c #30373D",
"n c #30393A",
"m c #303A3C",
"M c #313A3E",
"N c #313C3F",
"B c #2E3740",
"V c #2F3A40",
"C c #303B41",
"Z c #323B43",
"A c #313C40",
"S c #363D41",
"D c #323F46",
"F c #343D45",
"G c #343F45",
"H c #353F48",
"J c #374045",
"K c #354046",
"L c #364146",
"P c #384247",
"I c #354049",
"U c #374248",
"Y c #364249",
"T c #36424A",
"R c #384349",
"E c #394349",
"W c #39444B",
"Q c #3A454C",
"! c #3B464C",
"~ c #3A464D",
"^ c #3C494F",
"/ c #3C4751",
"( c #3D4A51",
") c #3E4B53",
"_ c #3F4B53",
"` c #3F4C54",
"' c #3E4C56",
"] c #404B54",
"[ c #404C54",
"{ c #404C56",
/* pixels */
"mmCmNNNNNNmmmmhjc-<d9iuuw3555yhiygddyw9k>3]'_''{']]]]{_/EHJTTPEETFAvzNJ13311>1>>11>>1>15751>35dyukw3",
"nkkhyww5775213313%<dyu21<<541215iwk9w111;3{]'_TFCCACCAnc333333w43111133=<>1>1>1>1>1>>1151311113wkuk3",
"21111<11><1111>13=1d3<:&&-<4717w3u9u211<;3''^Jhw99dkddw311349uuww1>1>1<-1>>11111>>11>11h31111>113<3i",
"><<<1,1<<>1>><5jd=-1<;&wCz<;<2<:;1<;;--;&3{!nh314b9ddkdhw4dchdwdh311311-<11>>1>1111>112573<<<111<<<4",
">><<<<<1>><132yhk&<41;z!JHAw,--;>;;-**--$1Vhw33339ikhwhdddddddddz41111<-11133<<<112<15111<1<<<<<1<<<",
"<<<<1<1<<<12y5yhd-4cggz43551213155312232;&:>1313333313i5dcdddddvzz31333;11331<><><<<1>>><<<:,,:;;*&&",
"<<<<<111<<<252321%&;>>>1221:;;;;;;&--;;-@@&$&&&&&-----;;:;;>>123333<:;*#=&%&&$%%&$$&$&&&##$&*$$$$&&$",
";,,,>;,,:<:<,,,::$#$$&&&&&$$$$$$$$$@&#&&@o@$&&&&#&&&&&&%#&$*%&&#%&&#$$%@&%###@$#@#######$@$$&&$#@$@#",
"----;-,-;;*;5255213y5535hg5g331iipi3ikii1336hikkykkuhh5&:;;;::;&*:,***,:,--&&+&--**--**-;;,,<;;****-",
"1>1><<<<>>;2vnNnNNNJ^^!!(TI!VVV!(/!V!/(~VVK~!!TWTWTT^TV&3111111<<342212u7<,,-@<1111<<1115uuuw2111<27",
"><1<<<<<<<;;55223133y5hvv5>53315zzh33hic5izhzdhzkhhyyh3&<<1>1111344<,;-;-%$$#X&<<1<<1h35947w1>11<<2u",
"&&&&&&&&$&$$$*&*--;*&&;>>;=;;;;;:3;;-;;<13>><>>:;<;>;:;@&-&-=&=&*-&&$##O##o##.#%$$&$--;--&&*=&&-=*--",
"##@@@@@@@o@@$@$$$#####%%%%%%@$@###%#%%##@*$%=+%@#&%%&$#@@###@#####+o%##@#$#@#+@+###$@#$$$$%%$$$$$$$$",
"49id9nmb<*kyjjnNJnwd9dBETDbbkkkVJWTTFDmCKTJTK=3VEWWTJT!JmdbkkkkddkbdcJJAAEHCkcdmunJAmCJ!PPWTWT!JPWTP",
"3w449nnv1*Nvy52yvu3kk4cBVbw33kBBKCZAAmmVVAZKz&zBDTJFKJHVcikwu9wdukkukFEFFJHCkkpyuvumFTJHJFJHJJTSKJNh",
"<<1<14uy<;j5<>1131dk99dkdyd33ikdivzi9k33hvzih&5i943hidd33<1<111w9wyhikkdddb9wh33225wddkdw3igkddy5111",
";;;;;;<<-&>:;;;;;;>225124313<44433733<;>11331%;33<,,<<<<2<>;;;;<><<122332132313>1:21312<<;1141<;;;;;",
";<;:;;;;$#&&&&&&&&**;*;;-;-:;--;-;%:3<<<43333333<4133344343<<31>:>;<3233<*3333335555553541<<,>;>>;:>",
"nCCCCCNn;>1<>><<1>>532hykik9ddudd9;v{__''__'//_EH!/////EH/_TDTJVvvNN^(({B-T]_!!^_(^______JAFCCDNVVJV",
"mmmmbmm9-1>>>1>1111>>25533323uw41-#v^!!EFACCbikd4dcccvu44ii332335123hywu1=ddiwvJKKKJKJPPAukdckkcvhvv",
"n232112<&>1>>1>11>31>>1><111<<;-<c;3dvddduduiy9u31949333333<><151133144u<&d449ddhyyw2277111111111111",
"<>><<31>&133331<>16611>111:*&-<iVz;<ddd9ki933333343333h4yuud3<1111uu9u99<&4bdkd9hy21<<1>1<1><11<1>1<",
">>><172>&>35y33<>>3>;;;;-$#;1kdd1&@<9k93333uigdhddkddiddkdxky11>1249ubub<%i<3udbw2<<11<11<<<2<<<1><<",
",><>271>@&--&=&=$%*$$$$@oo$,3i4--<&<u9uwu9yddvddcdcdvciddcyuy3>1329ua9d9<&i439u431<<<1<;:<<<<11<>::$",
"<<<<19u<#$$$#%%&%%&@$+XX####-=&-;<$<93127777y345333433333344453<<>><11:;&@;;=;;---&*&&%%$%%&&*-&$$@#",
",,,<472<@$$##%%&%@@@o +#####%+o%%#o%-&%%*&&&&&&*&&&&&&&&&#&&&&-&&%%%&%%#oX@@%&##&&%%&$#######$##$###",
"***$--&&#@+##%#@@X&&@$#&%$&%&&#&=&%&&%%%#@&&;$---==&&=-&-&=&&&&&#&&=*-&=%@&&&&==&&&&&&&$$%%%#o%&&&$#",
"121<1<<<<,;,,><<*X5vcVVvmF!CvcVVmCCmnknn1:J!^^!!!!/!WW!!//!/Jvvv;H/!!TW!!!!WT!WW!!!THW!SDVvv;*9kwdky",
"w973399d434111><&XuAJDkkbvJvww433dkww321:>!__'_''''_TDT'''''TVTV://TTKD!'_!JC/FF^WTVDCCBh33-;313113>",
"92199u99u941<13>#Xy!Jvwy9d9u2131<4w33111;1_'_(__/!TZk4wH^'((I!(I-VBCzizAcgi33w3wdudik4113<==313y4311",
"39399u9ndu411<1-@XuJ513h43kdihhhhkduw231;3_^Jvkkk333313dkCJKVVVp%--:--:>>==>::,<<<1-,,;<<=%---:<<>--",
"d3u999uau94111>*# 2uh11333udhiidddhu4392:3Kyyh45k43334dik9h33w33*-::>;---;:><<<<<1<<=%><<---:<>><<<>",
";;<<1<253<<;:>;&#o<uy1124dwdddddvddkhkdd<3b999dd99d4u3wdi4u2<153-!'''_JAJT'___^JJ^!!iD!T!JvJJ!!KJVJ!",
"$$&&&$=&%$$$$#&##o<h<21yy34kddcdddddiddk<<bd44ndd972344cdw3112k3-/_/THvvxhVNCCvk5hvi;V3wkky3y551133w",
"$#&&&&&&&%$@@$@$# >hy12g9uiicdddvdddvddn<<cib4bdu77udukdduiyi4kw-/Cvzzi35ihznduu5w<;:31113315512gkwh",
"++@@@@$@##@+@+@@  *>-;:><;:1<<<;:;<<,<<,-&<:<;,,<;-::,>:<<,<>>>;#<;;;;---;----;*-@+&=&&&&&&&=**;-;-;",
"@@@@@2hhiih31<<1<4kwgghjduukdn4iiw53ddddkdci4dikkihivzdh3yyd433&O@$@@@$@#@##@@##OOO#@@@+@##@@@o#@@@@",
"&&&&#T''']''!EJAW]/EK^__'''{]]'__TAAH!//!/!/T!!WTWJEFDAJAFVAAvi<@&&&&&&&&--;;&&&&&&*&&&##&&&&&@&&&&&",
"<<;&@IJJVJ!!!CbCJTTJVKIKKKJAZB94hk5249bciVzczzihddykkvizdkwdzdk<@&&&&;:13w39453><23w711113333;&<1<1>",
"522-@15h335h4444i5i563>>555h4<<<151<<3w43343y4h5yw93i353i5y334d;@&&:279dku11232119uuuuuuicdzk2&2w3ww",
"&&$$O#%&&&#%&#&#&&--&&&&==***-**&&&&&==--%----****-&-&*--=&====$%3widdkkkk4311339k99uuuuuddc94##$$$%",
"&*&&&&&&&&%&&&#@-y944<4d9ddd44d43y43dd4d4224w5iyu9wyk9wi3iddd4i>-zzidddddddhy112udkbuuuuukddb3$$$$&&",
"<122<14422122<-&<k4w4121122<<<,;;<<<<<<<<,24334377wdiykhkiihddd:;wzhvizddvii5h53iddwu9994kddb2-<>179",
"<2yukd4bdu9ub92*=----===%-%&%%%=&%&&&#%&-==-&---;--;-;;>1<33134--zhhdzdccdvhkhy33kid333114dbu3:417u9",
":<1<2<4<,,,,<2<*@###%%%#%###Oo#@#@#########%%$%#@$######@$$@%%%+&23223333332322<<34<;:,,<44422-2;,<,",
"=--&&=&&$%*&%%%#####%%%%&&*%&&%&%$&*%*-<::;,<;><<>::;><>>>;<::::>315331113313133141<*#&&&-----&%%%%%",
"4i449442<22<<<222<<4d34i4ku9u214w99u<bS!]/]]_!!TEEWTETWTE!WPHHHETTKIJKJTITJTTJJFKZn9;*<1442244<<<433",
"<444422<<<,2<249d4224<2349424421239d;N!bbBZCkcddddzkcdidddddddzzgzhhzhzz5izgdihww1<1**11<2<<2<<23u9u",
"===*&-***-&;&-:,;;-;;-*&-;:;;;----;:-CTdubud9dvdddddddbdddddbdbddbdbdbdb9ddbdk4dh5>3;@=;:;;;-;;--,,;",
"++++++++@o@@@@O@@++@@@@+@@@@@+++++@@#1<;;;;,;:;:;<;<:<;,;<<<;,<;,<,;<-;,;;<;<;;;;-=*@X@oO@oOoooo@O++",
"O@.o####@@$$$$#O#$+.@$@#$$@@$%@+@@#$##%++<,;<1<1<1<<1<1<2<<<<<<1<1<1<1<#;<,<<<1,;-:*;;@O###O##@@O##+",
";;*%#*;;:;&&%&*#%&%X@%$%&&&&$$*$#&&&&=&%#uu9dbkdndkvdkkidukkn9di3kdkddd&4addkuuh11<>>>$;<;-;;*;;--,-",
"223<<;;;372<<,,<,&%X+$%&&*&&%&**-----;;&#kdddddddddddvdvcddkku333iddiid#;24w43111>>>;;&>11111<111111",
"324di4<1<12211144&%o#%=>1231:4ih4iiidd9<&4uudddcdddkdiddddd9d9uudkddcw3@#&&*-*&&&&$@$$@;721>1131<111",
"32<1<<<337<:;,4b4,%o;43>1133ukdivdddddk<%dduddzddvddddxddddd9nuu99434d4#@@@@oooooo++OOO;751111971132",
"<<<<<33422<1,,,b44&o3cw1>5w9w9ikidddddz2%wddhdddddddddizcdkdu7334434444$<43313<<:;::;&@;12yw12uy9u9u",
"<<<<2wwy359d37;111&+4dy324kduuu9iddkkdv1&hizdzzzddzzddddikd9u1<:>;;;;&&o>53311<;;;-*$#O,11hhw9wdwhdw",
"<<<1411<1wkw22;&;,-@3ddd54dd9d413hkdidk1@<>>:;>>:::><;;-;;;;;&&&&&$&&&&o$&&&$$$$##$$$#O,13hkihy53iyk",
":;;<21;,<532<,;;-%oo1331<;<4431,131<344;X%$$%%###%#%#%#%$$#%$$$$&$$$$&@X@##@o#OOOOOOOOo*;<1<<<<;:;><",
";;;;:;,<<<@&;-&-----;--&====&*-,;:---;;-&-&*===&==-===--=&&+>11111<1>11<<<<<-@=;----,**,::<:<;>;::;<",
"vvvnmbnmAu@&<111udduu9w1<311<137433333445i5y9yiy3yhydddddd1%!']_'____^]!!!!!v;vANNNNnnNnNvnmvvvvvvnm",
"125<111111X&<111<9yd9w33<331<<<,<<113<>3333343hiyhkkdBdddB1%DHFCAVvvvvkbkcxz3-vh27w7222212511111<223",
"<,>><<<<1<X@-::-;;,,;-=&=-&=*&&&=&==&==&&------;;;;::<1113,o49913ykiyuk9ddkk9;kwwuhw51>1<4w21131149k",
":;&&*&--=&XXO@XOoo@#ooo#+@++o@o+##@@@@@@@@@#@@+%++@@@@@@@##o-,,-*;:,,;,;,;,:;#,,;:>;;===*;;,-&&&&-;;",
"2233<<33431333<::<<13<3333333<:>33333333333333-&-----=--==---------;-;=;;-;;--;-;-@+&#%&%-;--&&%&&#@",
"AvCFCCFFZCCBZFFvwvvJDZFHHHTFJFuvJWWWT^!!//!__{w<ndddbbdddBBddd9dnb9dikhhukw3313113>@##-239dku333>3>&",
"h3c4y7444d9<4w11<ww1114333zdu7<5wddikkdkckzzkEd-<<<1<122<444444d9dw9wwhw9uw3w1<1112-+X$<9u9hiw3311;$",
"hh44<<<<44449d3<29w1<1iid34duw15ydkdhki3dki34d;%&&=%==%-====------;;;;;<::<::>;>>;,;=+X$;;-;:=;;&&&@",
";;;;;&*&&&&&*&&%&-&&&%-*&&=*****=-=---&&-====&#+++++++++++++++++++++@@@+@+#######+@@@@oo@@@@@@#@OO@@",
"2515kyy- #O@Oo##@@+#@+@@#########%++%######%#%%#%%%+#%%%##%%%%&#%%%%#%%%#@dCbmbCbmv732532333wvy23251",
"1533kF!<O##%%####&%&%%%@%%&&$&&$%=+@&=-;<33<243wi3333343i3444w3w4i3ww44d3#P]/]]{_EJNNh555533yvh37555",
">>1325k-#%########%%%%%#%%&&&*&&==+&,37ikdddddddBBddBddcdddddBdcdBizdddd9&FFbdA!TFw511111>11>11<>1>>",
"12wwu9u*@####&#&*>;-<;<1<<3<<31344-;dbkdd4wkdddd4BiBddiiddddddzddddddhidi&544d9w2521>11>1>>1>>1>>11>",
"1ww<49d&@$##&*-,1i4113331b933y3y9d-<d9kdydwdh4hiBiB4dd4wddddkwkzddddhg4k3%3idwd4>1>111>1>11111111>>1",
"11114u9*@&*;424933321wyw9d4499w9uw=<99kdduwkw3di4BddddB4idddhkciddddh53>-+3kkdu33>1>>1>11>111>>11111",
"><2249u*&<1399ddu399wdyu4uu9k9w13d=,44ikdkhyikkdB4BiddiBbdddiikidddph3>=&#3dbd941><1>11>11>y511>>1>1",
"><5whd4&&242244933ikuuwdk33ykd23dd%&<331113<<<<1-;<;;;;<-<<,<;>>1>>>>;&&&@4ddk9111122<1<<<1w511<1111",
"::<<2<,%&<<,,<22,<1332<<<<<3332341%+###%#&%%%%##%%@#@%@@%%##&#&#*@$$@@%$$+13334<;><23<>::::<1;;;;;;;",
"O@@@@+@o+###&,,,;;<<<<<;-;<<<:<<-%=&%%&&&&&&&&&%%#%%%%%%&%&&&&#&+o@o+X++o+%%##+@O@$O$@@@OO@O@OOOoOOO",
"@$@@$#%&&%%%,]]]'^''_'!!F!^'__WWd&zd4wud9k9yk99kB44433334bb9d444@&;;;;;;;;-;;*&&&--&&*&&&&&*&&X#$@$$",
"-***;;*;;;-;1!!_]'_^{//!FFPFnbwk<=zkib9u99ub9339ub93<<<1r9u9dku5%399>3ihhdhd3>;;;;;;;;>1>1>>>:O&&&&&",
"722773<7yyihh__'!DBCZBbbh399w9bd<&iididknu44149999uu3113ub9ddhkg#19w><31<:;-;;13>55y5;$&;;-&&$O:1<1<",
"9w79y77uw5i7x!_Wcvddkdkdy3u4491,*$iwddi39u4439u324u9333<2u9kdvh1%%**--;<3vvvVTTVj525252-*;15g2#:1>>1",
"94327wi9333ivTTVddddd9di9771,;1b3&hdkdi349n9kuu93<3dyd333394dw3>&9dmAcvcmcv5hy33<<>>>15vNmmy5>$:>11>",
"431149ukw9d7bFVddddddddb4>-3bF!_h&hkdk99dd3344777329hw31wu9<<<;&#13331331<<1<3>>1>1>1>>55111<,$,1>11",
"k33wu992377w4dddkiddpv44<dTvbAbi:@><,<;,-*-&&--**-**--&&-,*&&&$@+1933<333311>3<1111>11>><11<<,$,11>1",
"44w4duw444393huuii45343ivJAy2dkd:+&&&&&$&##%#&&&&&&$&$@@&$$$&&$@#3kwd43dd3w3<>1321><1><31<:<,>@<<<<<",
"<<,,--;;;-;-;--;;=%@&--:;;;;--;;&+#####$###@$@#@#$&%&;;;&&&&&&&&&<<<111333>;>>>11>:;:;;;;:>;::#&;*;;",
"144-+%%&&&&&&&&$%=&==&&&&&&&&%&&&&*&$*&&&&&&&&%$@&ckAHFJCFmhhjvvnmAjyhAJAvkAJKITTAhyjhhujvknnv;-<>:<",
"w4i:%<<47322755533434443437421922127w222432241,<-*m3334pyy31111113112131135i553hv55513335255yk;:1<<1",
"<3<=-9dddyu9wwuuzzzdddy3yukuu79kuwww992u9kww32<1:-9<<<1><<1<11><1><<<>>1<<1<1145y2<1111<><<<<2$;:<<1",
"#&%%-u244433259543w44d333337772277<<1www2<11<<><,-9<>>>>>><<>>>><:>>>:>>::1<>13>33<:>>;,>:>:>>$$&&&#",
"d311umbCBbbbcbBhiAAFAFhzvvvwnnAvnnwuvzkuw7774i3w43g34444i33w4wy3-27u555wywkczJJANAVzumBddvvuuVxvnnkn",
"vc93wkbbbbbBbbvhV]{{''!TAVNA_]'!S!E!TJJJNvvuzdhwpp5334i43ku37wwy-vnuvyjkuFETPTTTJTJDFTFJCFACJvVKNFFC",
"492<1139dydwdhi3zJJTJAckkwwvmNDF92w353d321<1<111:1>:>>>>1k93<11>*2711<<<13yy5125yy33444nduuwy3gyu299",
"442114149k4u94p3;>>:1<<<<1<<2111,;-;>>1;::;::;;;;;;::>;;<<11,;;;&2u7231129uy5<<<22<<<,34u92111132<14",
"-*--&&--;;--;---%@%@%%%@%%%%#%%#++++#@@+++++++o+@+o+@&$$$&-&&#&&&>;;<;---<;<;--**--***#-;-&&$&*&&&&&",
"4431<,24i444wi4d4ddddddddi4444<<<<<<<%%%%#%&#%$%@%;>5575kFDvuduVNAZCCmd9kmmFmh4w747w9,;131<:<1221<,:",
"i3<1<,<3i42<<4i24344<444d43dB3<<<----%<43<1<;;;1ikk95335idd333ikdkdcdvd99idd52111333w<,32111<12k91<1",
"----%-%--%%%&%&*&&&&%======-:;=%=%==%=dBd4<-3cvvcchwukyukkdwhdkiddddddukb9dkw3w53w942*;22,,,;;>11,--"
};
